<svg xmlns="http://www.w3.org/2000/svg" width="30" height="30" viewBox="0 0 30 30">
    <g fill="none" fill-rule="evenodd">
        <circle cx="15" cy="15" r="13.5" fill="#404448" opacity=".832"/>
        <g fill="#FFF">
            <path d="M14.594 17.588a2.782 2.782 0 0 1-1.413-.637l-.054-.05a2.66 2.66 0 0 1-.3-.326 2.677 2.677 0 0 1-.566-1.653c0-.626.21-1.218.598-1.695l.023-.028a2.693 2.693 0 0 1 .729-.613c.3-.17.634-.283.983-.335a.876.876 0 0 0 .577-.348.876.876 0 0 0 .162-.654.875.875 0 0 0-.957-.744v-.002l-.019.003-.026.003a4.666 4.666 0 0 0-.232.041 4.416 4.416 0 0 0-2.295 1.219 4.464 4.464 0 0 0-.009 6.297l.01.01.001.001.001.001a4.422 4.422 0 0 0 2.57 1.262v-.005a.875.875 0 0 0 .957-.744.876.876 0 0 0-.163-.655.875.875 0 0 0-.577-.348M17.403 13.224c.707 0 1.283-.559 1.283-1.247 0-.707-.576-1.283-1.283-1.283-.688 0-1.247.576-1.247 1.283 0 .688.56 1.247 1.247 1.247M18.63 16.768c-.117-.41-.445-.9-1.336-.9-.687 0-1.247.56-1.247 1.247 0 .644.487 1.177 1.12 1.24v1.528l.195-.122c1.016-.637 1.516-2.132 1.269-2.993"/>
        </g>
    </g>
</svg>
